# xmcd CD database file
#
# Track frame offsets:
#	150
#	19189
#	34718
#	54263
#	72115
#	87265
#	104746
#	121851
#	139703
#	158223
#	172125
#	190844
#	207940
#	224732
#	235848
#
# Disc length: 3398 seconds
#
# Revision: 0
# Processed by: cddbd v1.5.2PL0 Copyright (c) Steve Scherf et al.
# Submitted via: CdAid (MTCDDB.DLL V2003.12.21)
#
DISCID=d70d440f
DTITLE=Various Artist - Karaoke Country Volume 5 disc 1
DYEAR=2006
DGENRE=Country
TTITLE0=Must be doing something right - Billy Currington
TTITLE1=Some Beach - Blake Shelton
TTITLE2=Alcohol - Brad Paisley
TTITLE3=Im getting better all the time - Brooks and Dunn
TTITLE4=If she were another woman - Buddy Jewell
TTITLE5=Redneck Yacht Club - Craig Morgan
TTITLE6=Lot of leaving let to do - dierks bentley
TTITLE7=mississippi girl - Faith Hill
TTITLE8=Best I ever had - Gary Allen
TTITLE9=Texas - George Strait
TTITLE10=When I think about cheatin - Gretchen wilson 
TTITLE11=somebodys hero - jamie oneal
TTITLE12=hicktown - jason aldean
TTITLE13=whats a guy got to do - joe nichols
TTITLE14=break down here - julie roberts 
EXTD=ID3G:   2 YEAR: 2006
EXTT0=
EXTT1=
EXTT2=
EXTT3=
EXTT4=
EXTT5=
EXTT6=
EXTT7=
EXTT8=
EXTT9=
EXTT10=
EXTT11=
EXTT12=
EXTT13=
EXTT14=
PLAYORDER=
